<?xml version="1.0" standalone="no"?>
<!DOCTYPE svg PUBLIC "-//W3C//DTD SVG 20010904//EN"
 "http://www.w3.org/TR/2001/REC-SVG-20010904/DTD/svg10.dtd">
<svg version="1.0" xmlns="http://www.w3.org/2000/svg"
 width="676.000000pt" height="676.000000pt" viewBox="0 0 676.000000 676.000000"
 preserveAspectRatio="xMidYMid meet">
<metadata>
Created by potrace 1.14, written by Peter Selinger 2001-2017
</metadata>
<g transform="translate(0.000000,676.000000) scale(0.100000,-0.100000)"
fill="#000000" stroke="none">
<path d="M3286 6322 c-2 -1 -27 -5 -57 -7 -86 -8 -121 -14 -220 -40 -52 -14
-102 -27 -112 -29 -32 -9 -212 -90 -215 -98 -2 -4 -10 -8 -18 -8 -8 0 -20 -5
-27 -10 -31 -26 -86 -58 -91 -52 -3 3 -6 1 -6 -5 0 -6 -15 -20 -33 -31 -31
-18 -43 -27 -99 -75 -54 -45 -131 -122 -170 -170 -24 -28 -46 -53 -50 -55 -3
-2 -30 -40 -59 -85 -28 -45 -59 -93 -68 -107 -48 -73 -143 -323 -156 -411 -4
-24 -8 -46 -10 -49 -4 -6 -13 -66 -20 -128 -6 -50 -7 -271 -1 -302 3 -14 7
-45 10 -70 10 -75 16 -101 42 -195 27 -93 73 -214 107 -275 41 -75 82 -145 89
-155 5 -5 36 -46 70 -90 65 -84 175 -197 237 -243 20 -15 38 -30 41 -33 14
-18 176 -116 256 -155 91 -44 269 -107 335 -118 19 -3 45 -8 59 -10 85 -15
129 -18 245 -19 116 -1 188 3 265 17 14 2 43 7 65 11 86 14 253 73 360 126
183 91 347 219 475 369 30 36 58 67 61 70 20 17 127 196 163 273 40 84 96 247
110 322 4 17 9 41 11 55 14 68 19 137 20 260 0 188 -11 266 -57 429 -131 459
-471 826 -929 1001 -104 40 -255 74 -379 86 -69 6 -240 11 -244 6z m124 -489
c0 -2 -6 -3 -12 -2 -24 3 -39 -1 -34 -9 2 -4 -9 -8 -25 -8 -16 -1 -29 2 -29 6
0 8 -91 -8 -102 -19 -4 -3 55 -5 130 -4 75 1 137 3 137 3 0 1 21 2 48 4 26 2
47 0 47 -5 0 -5 -8 -6 -17 -3 -14 5 -15 4 -4 -4 8 -6 20 -8 28 -5 8 3 13 0 11
-6 -2 -7 27 -23 64 -36 123 -43 364 -176 376 -207 2 -4 7 -8 12 -8 20 0 145
-140 179 -200 72 -127 102 -219 104 -319 2 -63 5 -77 15 -69 10 9 12 -3 7 -63
-3 -41 -6 -87 -6 -104 0 -16 -11 -65 -25 -110 -14 -44 -27 -87 -29 -95 -4 -21
-44 -128 -62 -170 -9 -19 -35 -63 -59 -97 -24 -34 -45 -70 -47 -80 -1 -10 -13
-29 -25 -41 -12 -12 -22 -28 -22 -35 0 -8 -11 -23 -23 -36 -24 -22 -68 -28
-117 -16 -57 14 -110 22 -110 17 0 -2 -6 0 -12 5 -7 5 -28 10 -47 11 -58 4
-74 19 -67 60 3 22 16 46 31 59 14 12 25 29 25 38 0 8 4 23 10 33 39 68 117
312 100 312 -5 0 -4 15 2 33 10 32 16 65 22 123 2 17 6 37 10 43 4 7 3 18 -4
26 -6 8 -10 22 -9 32 2 15 -11 154 -16 173 -1 3 -5 23 -10 45 -10 50 -41 120
-72 163 -13 17 -21 32 -18 32 4 0 0 6 -7 13 -7 7 -29 14 -48 15 -19 1 -67 18
-105 36 -66 32 -130 53 -165 55 -8 0 -40 2 -70 4 -52 4 -119 -15 -128 -35 -2
-5 -12 -8 -22 -8 -11 0 -34 -13 -52 -28 -18 -16 -59 -48 -91 -72 -32 -24 -73
-64 -90 -89 -28 -41 -32 -55 -36 -131 -7 -144 -2 -310 9 -310 4 0 7 -24 7 -52
-2 -58 10 -137 23 -153 4 -5 15 -41 25 -80 9 -38 33 -103 52 -144 19 -41 37
-89 40 -106 7 -42 -19 -82 -58 -90 -16 -4 -29 -13 -29 -20 0 -26 -15 -29 -197
-40 -85 -6 -93 -5 -112 16 -12 13 -22 26 -22 31 -2 14 -5 22 -18 53 -7 17 -31
77 -52 135 -22 57 -45 114 -53 125 -23 37 -27 55 -9 48 12 -5 10 0 -5 15 -11
11 -26 40 -33 64 -6 24 -19 66 -29 93 -9 28 -16 67 -16 88 1 20 -2 37 -6 37
-15 0 -1 285 18 360 10 41 17 79 15 84 -9 34 51 211 86 254 10 12 31 39 47 62
17 22 33 40 38 40 4 0 20 14 35 30 48 54 242 166 338 194 22 7 54 12 70 11 37
-3 125 16 125 26 0 4 25 7 55 6 30 -1 63 0 72 4 17 6 43 2 43 -8z m63 -1798
c29 -2 50 -22 41 -37 -3 -4 6 -8 20 -8 14 0 26 -4 26 -8 0 -7 9 -9 65 -14 14
-1 25 -6 25 -10 0 -4 3 -7 8 -7 19 3 30 -2 36 -17 5 -12 -10 -33 -50 -71 -31
-29 -59 -51 -61 -49 -2 2 -18 -9 -34 -25 -29 -28 -66 -34 -97 -15 -7 4 -17 4
-23 0 -11 -6 -73 21 -97 44 -8 7 -18 10 -23 7 -5 -4 -9 -1 -9 4 0 6 -9 11 -19
11 -13 0 -18 5 -14 18 2 10 -6 29 -19 43 -13 14 -22 31 -20 37 2 7 -1 12 -7
12 -20 0 -12 28 14 48 24 19 108 37 153 33 12 -1 22 3 22 9 0 8 6 9 18 4 9 -4
30 -8 45 -9z m67 -9 c0 -3 -4 -8 -10 -11 -5 -3 -10 -1 -10 4 0 6 5 11 10 11 6
0 10 -2 10 -4z m35 -16 c3 -6 -1 -7 -9 -4 -18 7 -21 14 -7 14 6 0 13 -4 16
-10z"/>
<path d="M3035 5757 c-17 -7 -46 -22 -65 -33 -19 -12 -46 -24 -60 -27 -25 -7
-80 -48 -80 -61 0 -4 13 2 29 13 16 12 32 21 35 21 2 0 38 15 78 34 40 19 81
37 91 40 9 3 17 10 17 16 0 12 -6 12 -45 -3z"/>
<path d="M2827 5414 c-2 -3 -18 -6 -36 -9 -20 -2 -45 -18 -71 -45 -37 -39 -45
-52 -41 -74 1 -4 3 -28 5 -53 4 -52 12 -63 55 -69 24 -4 36 1 56 20 13 13 32
26 41 28 46 9 80 127 50 173 -14 21 -50 38 -59 29z"/>
<path d="M3944 5413 c-21 -15 -31 -48 -29 -91 4 -50 25 -88 57 -98 13 -4 33
-18 46 -31 24 -26 66 -29 91 -5 17 17 33 99 25 126 -7 21 -77 95 -92 97 -4 0
-25 2 -47 5 -22 2 -45 1 -51 -3z"/>
<path d="M2560 5295 c-8 -9 -8 -15 -2 -15 12 0 26 19 19 26 -2 2 -10 -2 -17
-11z"/>
<path d="M2535 5249 c-4 -11 -4 -23 0 -27 7 -7 25 17 25 36 0 20 -18 14 -25
-9z"/>
<path d="M2488 5001 c-4 -13 -4 -38 -1 -54 5 -27 7 -28 14 -10 4 11 4 35 0 54
-7 32 -8 32 -13 10z"/>
<path d="M4041 4934 c-16 -13 -32 -36 -35 -50 -9 -34 37 -127 69 -142 32 -15
85 -4 85 16 0 8 3 12 6 9 4 -3 15 4 25 17 17 22 20 48 6 62 -4 4 -7 18 -7 31
0 16 -12 30 -37 46 -59 37 -80 39 -112 11z"/>
<path d="M2670 4922 c-29 -17 -46 -34 -46 -47 -1 -11 -4 -28 -9 -38 -4 -9 -5
-27 -1 -40 7 -28 64 -67 97 -67 26 0 69 37 69 59 0 7 7 19 15 27 27 27 14 79
-28 117 -27 23 -44 21 -97 -11z"/>
<path d="M2778 4450 c-50 -57 -60 -99 -42 -163 6 -19 39 -36 86 -44 36 -6 79
35 78 74 -1 16 1 44 5 63 5 32 2 37 -28 58 -48 32 -79 36 -99 12z"/>
<path d="M3944 4451 c-33 -20 -61 -76 -43 -87 6 -3 9 -13 8 -22 -4 -49 18 -82
58 -88 26 -4 86 18 98 36 15 23 15 92 0 120 -17 32 -51 60 -73 60 -9 0 -31 -9
-48 -19z"/>
<path d="M3471 4001 c-8 -6 -9 -11 -3 -15 6 -3 14 -1 17 5 9 14 2 20 -14 10z"/>
<path d="M1378 3455 c-2 -2 -28 -6 -58 -9 -61 -6 -275 -59 -324 -80 -17 -8
-52 -23 -78 -35 -26 -11 -50 -21 -53 -21 -22 0 -283 -174 -330 -219 -5 -6 -35
-34 -65 -63 -86 -82 -175 -191 -237 -293 -31 -49 -123 -246 -141 -300 -86
-252 -102 -539 -47 -810 73 -354 296 -692 606 -918 122 -90 372 -203 509 -232
8 -2 35 -8 60 -13 94 -21 160 -27 310 -27 209 1 335 21 504 82 68 24 235 101
246 113 3 3 21 14 40 24 143 77 403 328 467 451 9 17 19 32 23 35 14 10 97
175 128 255 45 118 60 171 86 312 28 143 20 394 -16 558 -83 382 -316 722
-646 944 -89 60 -242 135 -347 170 -90 30 -110 35 -195 51 -25 5 -58 11 -75
15 -32 7 -361 16 -367 10z m500 -647 c19 3 66 -41 67 -61 1 -20 25 -100 37
-124 26 -53 -4 -243 -38 -243 -7 0 -19 -9 -26 -19 -16 -22 -81 -35 -108 -21
-13 7 -19 6 -24 -5 -6 -17 -26 -20 -26 -4 0 19 -33 82 -53 102 -16 16 -18 29
-14 67 4 32 1 54 -8 68 -13 17 -12 23 5 44 10 14 22 36 25 50 4 14 22 41 42
59 19 19 44 54 55 79 19 42 21 43 35 25 8 -11 22 -19 31 -17z m-623 -42 c14
-9 25 -21 25 -26 0 -6 6 -10 13 -10 18 -1 58 -34 61 -50 3 -24 38 -124 46
-135 4 -5 7 -39 7 -75 1 -105 -43 -166 -139 -194 -38 -12 -41 -11 -75 20 -19
18 -33 36 -30 41 7 11 -9 38 -23 39 -5 1 -14 2 -18 3 -15 2 -51 84 -57 126 -3
22 -7 50 -9 63 -2 12 0 25 5 28 4 2 6 11 3 18 -3 8 -1 17 5 21 6 3 11 15 11
26 0 10 5 19 10 19 6 0 10 6 10 14 0 8 5 18 12 22 7 5 9 2 4 -7 -9 -16 21 18
46 55 20 28 52 29 93 2z m1149 -391 c24 -26 33 -55 42 -135 3 -25 8 -58 11
-75 3 -16 4 -46 3 -65 -3 -45 -6 -91 -8 -108 -3 -23 -54 -62 -82 -62 -15 0
-40 6 -55 14 -19 10 -45 13 -79 10 -37 -4 -47 -3 -36 5 12 8 9 12 -17 17 -19
4 -39 17 -50 33 -23 36 -24 125 -2 179 13 29 15 42 6 42 -6 0 5 14 25 30 21
17 47 49 59 70 22 39 33 47 86 56 15 3 30 7 32 10 12 12 44 1 65 -21z m-1606
-96 c2 -5 10 -9 19 -9 24 0 72 -39 89 -72 9 -17 15 -49 14 -72 -3 -81 -2 -112
4 -171 6 -52 4 -65 -16 -100 -49 -84 -109 -79 -198 16 -82 86 -85 91 -82 116
2 13 0 23 -5 23 -15 0 -32 59 -28 96 2 19 10 43 19 53 9 10 16 23 16 30 0 6 7
14 15 17 8 4 15 11 15 16 0 5 15 25 32 44 29 30 37 33 68 28 19 -4 37 -11 38
-15z m958 -109 c32 -11 63 -25 69 -31 7 -8 4 -8 -12 0 -16 8 -22 8 -26 -4 -4
-10 9 -19 46 -31 36 -11 67 -31 99 -64 26 -27 60 -54 76 -61 16 -7 33 -25 39
-39 11 -30 109 -89 156 -94 16 -2 42 -16 60 -32 17 -16 38 -35 46 -43 8 -7 15
-20 16 -30 3 -23 27 -71 36 -71 4 0 10 6 13 13 3 6 3 2 0 -10 -3 -13 -1 -23 4
-23 10 0 21 -40 28 -101 3 -27 -3 -46 -20 -72 -25 -37 -42 -76 -38 -91 5 -17
-44 -77 -68 -83 -14 -3 -48 -21 -75 -39 -48 -32 -54 -34 -125 -30 -80 4 -140
17 -205 45 -22 9 -46 16 -52 15 -7 -1 -18 -2 -24 -3 -6 0 -8 -10 -4 -21 4 -14
2 -20 -8 -20 -9 0 -17 5 -19 12 -7 19 -28 -1 -28 -26 0 -34 -21 -87 -31 -80
-5 3 -9 1 -9 -4 0 -16 -87 -52 -125 -52 -20 0 -52 7 -71 15 -20 8 -49 16 -64
17 -16 1 -27 5 -24 9 7 11 -50 30 -76 25 -14 -2 -30 -5 -36 -5 -7 -1 -15 -12
-18 -25 -13 -54 -124 -95 -239 -88 -51 3 -60 8 -99 46 -97 95 -137 188 -124
287 5 33 3 49 -4 49 -6 0 -4 7 4 16 9 8 19 27 22 42 5 27 32 82 43 92 4 3 12
18 19 34 12 27 12 28 -4 15 -16 -13 -16 -12 0 19 9 17 19 32 22 32 3 0 2 -5
-2 -12 -4 -7 -3 -8 4 -4 7 4 12 12 12 18 0 6 8 17 18 25 9 8 11 12 5 8 -7 -3
-13 -1 -13 4 0 6 6 11 13 11 6 0 18 18 25 41 7 22 30 69 52 103 22 35 40 69
40 76 0 7 10 23 23 35 12 12 31 34 42 47 24 29 60 50 69 41 3 -3 24 8 46 26
22 17 40 27 40 22 0 -6 10 -6 30 0 16 6 28 14 26 18 -3 4 11 11 30 17 19 6 36
8 38 5 2 -3 27 -4 55 -3 28 2 49 7 47 11 -3 4 4 7 14 8 11 1 22 -3 25 -8 4 -5
10 -7 14 -5 4 3 26 6 49 7 23 2 42 7 42 11 0 13 22 10 86 -12z m104 -44 c0 -3
-4 -8 -10 -11 -5 -3 -10 -1 -10 4 0 6 5 11 10 11 6 0 10 -2 10 -4z m150 -118
c0 -6 -6 -5 -15 2 -8 7 -15 14 -15 16 0 2 7 1 15 -2 8 -4 15 -11 15 -16z"/>
<path d="M5040 3449 c-35 -5 -87 -13 -115 -19 -27 -7 -63 -14 -79 -17 -50 -8
-197 -64 -286 -107 -102 -50 -215 -122 -290 -184 -302 -253 -474 -554 -547
-955 -10 -56 -10 -391 0 -447 72 -394 245 -698 537 -942 58 -49 108 -88 112
-88 3 0 30 -16 60 -35 92 -61 285 -147 383 -170 193 -46 225 -50 425 -49 142
0 194 4 278 23 324 70 580 211 801 440 65 68 178 213 202 259 8 15 28 52 44
82 36 64 100 221 115 280 5 22 15 59 21 83 6 23 12 51 14 62 1 11 5 41 9 66 5
26 9 71 10 101 2 30 6 59 9 65 4 6 4 13 1 15 -3 3 -7 55 -9 114 -2 60 -6 120
-9 134 -3 13 -8 42 -11 63 -8 51 -57 218 -85 287 -54 137 -142 285 -241 405
-46 55 -190 192 -252 238 -65 48 -220 147 -231 147 -3 0 -33 13 -68 29 -122
56 -282 102 -408 117 -78 10 -322 12 -390 3z m222 -467 c30 -29 54 -119 37
-136 -5 -6 -9 -27 -9 -48 0 -44 -32 -143 -55 -168 -8 -9 -15 -27 -15 -39 0
-25 -27 -113 -46 -150 -8 -15 -10 -31 -4 -40 5 -9 4 -23 -1 -33 -5 -10 -7 -18
-3 -18 4 0 -2 -11 -15 -23 -19 -21 -20 -26 -7 -37 22 -17 3 -50 -26 -47 -17 1
-22 -3 -23 -23 0 -18 -6 -26 -22 -28 -16 -2 -23 2 -23 12 0 9 -8 16 -19 16
-10 0 -24 6 -31 14 -9 12 -7 18 9 33 22 18 28 48 11 58 -6 4 -6 15 0 31 6 15
6 32 1 42 -5 9 -7 58 -5 107 2 50 3 97 3 105 -2 100 0 151 5 180 35 188 150
281 238 192z m361 -27 c47 -19 73 -60 76 -115 1 -25 6 -49 11 -54 5 -5 -6 -30
-26 -60 -19 -28 -30 -52 -24 -54 12 -4 -34 -96 -58 -114 -9 -7 -29 -35 -42
-63 -14 -27 -29 -55 -35 -61 -41 -49 -60 -80 -57 -94 1 -9 -4 -23 -13 -30 -8
-7 -15 -18 -15 -25 0 -7 -7 -18 -15 -25 -11 -9 -13 -16 -6 -23 13 -13 -14 -47
-36 -47 -11 0 -13 -8 -8 -31 5 -22 2 -36 -10 -49 -16 -17 -15 -20 4 -39 12
-12 28 -21 36 -21 8 0 15 -4 15 -10 0 -5 12 -10 27 -10 44 0 112 -39 148 -87
31 -41 33 -49 30 -101 -3 -35 -16 -79 -33 -114 -26 -53 -27 -58 -10 -58 13 0
18 -7 18 -25 0 -20 -5 -25 -25 -25 -14 0 -25 5 -25 12 0 9 -3 9 -11 1 -9 -9
-8 -16 5 -28 11 -11 15 -29 12 -57 -3 -30 1 -45 15 -59 25 -25 24 -50 -1 -56
-22 -6 -26 -18 -10 -28 6 -3 10 -1 10 4 0 16 26 13 43 -4 18 -18 31 -85 19
-97 -13 -13 -42 2 -42 23 0 10 -5 19 -11 19 -7 0 -8 -7 -3 -17 4 -10 7 -33 7
-51 0 -26 2 -30 13 -21 8 6 21 9 30 5 28 -11 51 10 46 42 -4 33 23 73 44 65 8
-3 14 -20 14 -39 0 -31 2 -33 23 -25 12 4 28 6 34 4 7 -3 16 2 19 11 3 9 12
16 20 16 8 0 14 4 14 9 0 5 8 7 18 5 9 -3 28 6 42 18 14 13 32 24 39 26 7 1
39 8 70 15 92 21 164 10 205 -34 30 -31 39 -90 16 -97 -6 -2 -19 -20 -29 -40
-57 -111 -121 -133 -346 -118 -85 6 -143 14 -159 23 -6 3 -8 3 -4 -2 12 -13
-11 -45 -33 -45 -11 0 -22 7 -25 15 -8 20 -24 19 -24 -1 0 -12 -6 -15 -25 -10
-16 4 -35 0 -51 -11 -25 -16 -27 -16 -39 0 -12 16 -17 14 -56 -27 -24 -25 -48
-46 -52 -46 -4 0 -17 -9 -29 -20 -11 -10 -35 -22 -52 -26 -17 -3 -36 -11 -43
-16 -15 -12 -71 -20 -145 -20 -41 0 -71 7 -110 26 -57 27 -170 106 -175 122
-2 6 -19 8 -38 6 -19 -2 -35 0 -35 4 0 5 -20 10 -45 11 -28 1 -76 16 -125 40
-63 30 -83 45 -95 70 -9 18 -20 33 -24 33 -11 0 -36 59 -36 85 0 11 -10 24
-22 30 -26 11 -31 43 -8 51 8 3 17 27 22 52 8 52 9 60 13 67 6 13 5 31 -2 42
-5 6 -5 14 1 17 6 4 7 14 4 22 -3 9 4 28 16 44 12 17 17 31 11 35 -16 10 -12
45 6 52 8 3 13 12 9 20 -7 21 14 89 37 113 15 16 16 20 4 20 -17 0 -39 34 -29
44 3 3 13 6 22 6 9 0 26 15 38 33 38 55 113 127 146 140 15 6 16 10 6 29 -7
13 -14 32 -15 43 -1 12 -12 38 -25 59 -18 31 -23 56 -25 130 -2 50 -9 118 -17
151 -7 33 -13 76 -12 95 5 110 110 179 179 115 14 -13 26 -29 26 -35 0 -6 5
-8 10 -5 17 10 39 -14 33 -35 -3 -11 -9 -18 -13 -15 -5 3 -9 -23 -9 -57 0 -66
-5 -100 -17 -120 -5 -7 -9 -46 -10 -88 -1 -84 -10 -132 -30 -172 -9 -17 -10
-29 -4 -33 6 -3 7 -18 4 -32 -7 -25 -5 -25 27 -20 19 4 52 9 74 13 22 3 44 10
49 15 15 14 79 11 127 -7 24 -8 78 -17 119 -20 41 -3 83 -10 92 -15 24 -13 27
-11 21 9 -3 14 -12 17 -34 14 -24 -4 -29 -1 -29 17 0 11 5 21 10 21 7 0 7 6 0
19 -21 40 -3 88 23 62 19 -19 27 -12 21 18 -4 16 -1 32 5 35 6 4 9 11 6 16 -5
9 29 33 36 26 2 -2 5 39 5 92 1 54 6 108 12 122 6 17 6 33 -1 48 -8 18 -8 25
3 32 8 5 18 6 22 4 4 -3 9 6 9 20 2 44 26 116 39 116 4 0 11 15 14 34 8 44 78
123 119 135 18 5 33 10 33 10 1 1 17 -6 37 -14z m325 -327 c26 -20 41 -41 42
-57 0 -8 7 -23 16 -33 16 -16 15 -19 -4 -35 -11 -10 -25 -33 -31 -52 -19 -57
-60 -119 -91 -138 -17 -9 -30 -24 -30 -32 0 -16 -6 -24 -82 -101 -32 -33 -54
-63 -52 -73 1 -11 -7 -22 -22 -27 -13 -5 -24 -14 -24 -20 0 -6 -11 -15 -24
-21 -14 -7 -27 -22 -31 -36 -4 -18 -11 -23 -28 -21 -12 2 -22 10 -22 18 0 8
-6 19 -13 23 -23 15 -11 117 14 117 8 0 14 3 15 8 3 36 13 59 30 75 11 10 22
32 26 48 3 16 10 32 14 35 5 3 9 13 9 23 0 10 6 24 14 30 7 6 14 22 14 34 0
12 9 47 22 77 12 30 25 64 30 75 13 34 62 87 93 100 33 14 86 6 115 -17z"/>
<path d="M5287 2225 c3 -8 9 -12 14 -9 12 7 11 11 -5 17 -10 4 -13 1 -9 -8z"/>
<path d="M5600 1173 c0 -5 5 -15 10 -23 9 -13 11 -13 19 0 7 10 6 17 -2 22
-15 10 -27 10 -27 1z"/>
</g>
</svg>
