<svg xmlns="http://www.w3.org/2000/svg" width="32" height="32" viewBox="0 0 32 32"><g fill="none" fill-rule="evenodd"><rect width="32" height="32" fill="#FFF"/><g fill="#000" fill-rule="nonzero" transform="translate(2 3)"><path d="M0,2.7 C0,1.20883118 1.17525253,0 2.625,0 L25.375,0 C26.8247475,0 28,1.20883118 28,2.7 L28,6.3 C28,7.79116882 26.8247475,9 25.375,9 L2.625,9 C1.17525253,9 0,7.79116882 0,6.3 L0,2.7 Z M2.625,1.8 C2.14175084,1.8 1.75,2.20294373 1.75,2.7 L1.75,6.3 C1.75,6.79705627 2.14175084,7.2 2.625,7.2 L25.375,7.2 C25.8582492,7.2 26.25,6.79705627 26.25,6.3 L26.25,2.7 C26.25,2.20294373 25.8582492,1.8 25.375,1.8 L2.625,1.8 Z"/><path d="M3.5,4.88461607 C3.5,4.3960565 3.89175084,4.00000071 4.375,4.00000071 L9.625,4.00000071 C10.1082492,4.00000071 10.5,4.3960565 10.5,4.88461607 C10.5,5.37317564 10.1082492,5.76923143 9.625,5.76923143 L4.375,5.76923143 C3.89175084,5.76923143 3.5,5.37317564 3.5,4.88461607 Z M22.44025,5.45607759 L21.74725,4.75546223 C21.6217953,4.62894968 21.5842111,4.43842542 21.6520637,4.27293703 C21.7199163,4.10744864 21.8798047,3.9996802 22.057,4.00000071 L23.443,4.00000071 C23.6201953,3.9996802 23.7800837,4.10744864 23.8479363,4.27293703 C23.9157889,4.43842542 23.8782047,4.62894968 23.75275,4.75546223 L23.05975,5.45607759 C22.9776713,5.53926832 22.8662239,5.58602209 22.75,5.58602209 C22.6337761,5.58602209 22.5223287,5.53926832 22.44025,5.45607759 L22.44025,5.45607759 Z M0,14.615385 C0,12.6611467 1.56700338,11.0769236 3.5,11.0769236 L24.5,11.0769236 C26.4329966,11.0769236 28,12.6611467 28,14.615385 L28,23.4615386 C28,25.4157769 26.4329966,27 24.5,27 L3.5,27 C1.56700338,27 0,25.4157769 0,23.4615386 L0,14.615385 Z M1.75,19.9230771 L1.75,23.4615386 C1.75,24.4386577 2.53350169,25.2307693 3.5,25.2307693 L24.5,25.2307693 C25.4664983,25.2307693 26.25,24.4386577 26.25,23.4615386 L26.25,19.9230771 L1.75,19.9230771 Z M26.25,18.1538464 L26.25,14.615385 C26.25,13.6382659 25.4664983,12.8461543 24.5,12.8461543 L3.5,12.8461543 C2.53350169,12.8461543 1.75,13.6382659 1.75,14.615385 L1.75,18.1538464 L26.25,18.1538464 Z M3.5,15.5000004 C3.5,15.0114408 3.89175084,14.615385 4.375,14.615385 L20.125,14.615385 C20.6082492,14.615385 21,15.0114408 21,15.5000004 C21,15.9885599 20.6082492,16.3846157 20.125,16.3846157 L4.375,16.3846157 C3.89175084,16.3846157 3.5,15.9885599 3.5,15.5000004 Z M3.5,22.5769232 C3.5,22.0883636 3.89175084,21.6923079 4.375,21.6923079 L14.875,21.6923079 C15.3582492,21.6923079 15.75,22.0883636 15.75,22.5769232 C15.75,23.0654828 15.3582492,23.4615386 14.875,23.4615386 L4.375,23.4615386 C3.89175084,23.4615386 3.5,23.0654828 3.5,22.5769232 Z"/></g></g></svg>