<svg xmlns="http://www.w3.org/2000/svg" width="32" height="32" viewBox="0 0 32 32"><g fill="none" fill-rule="evenodd"><rect width="32" height="32" y="-1" fill="#FFF"/><path fill="#000" fill-rule="nonzero" d="M0,0.5 C0,0.223857625 0.223857625,0 0.5,0 L9.5,0 C9.77614237,0 10,0.223857625 10,0.5 C10,0.776142375 9.77614237,1 9.5,1 L0.5,1 C0.223857625,1 0,0.776142375 0,0.5 Z M0,2.5 C0,2.22385763 0.223857625,2 0.5,2 L9.5,2 C9.77614237,2 10,2.22385763 10,2.5 C10,2.77614237 9.77614237,3 9.5,3 L0.5,3 C0.223857625,3 0,2.77614237 0,2.5 Z M0,4.5 C0,4.22385763 0.223857625,4 0.5,4 L6.5,4 C6.77614237,4 7,4.22385763 7,4.5 C7,4.77614237 6.77614237,5 6.5,5 L0.5,5 C0.223857625,5 0,4.77614237 0,4.5 Z" transform="translate(19 12)"/><g fill="#000" fill-rule="nonzero" transform="translate(1 8)"><path d="M6,4.5 C6,5.32842712 5.32842712,6 4.5,6 C3.67157288,6 3,5.32842712 3,4.5 C3,3.67157288 3.67157288,3 4.5,3 C5.32842712,3 6,3.67157288 6,4.5 L6,4.5 Z"/><path d="M2,0 C0.8954305,0 0,0.8954305 0,2 L0,12 C0,13.1045695 0.8954305,14 2,14 L14,14 C15.1045695,14 16,13.1045695 16,12 L16,2 C16,0.8954305 15.1045695,0 14,0 L2,0 Z M14,1 C14.5522847,1 15,1.44771525 15,2 L15,8.5 L11.223,6.553 C11.0306844,6.45666274 10.7983078,6.49411687 10.646,6.646 L6.936,10.356 L4.276,8.584 C4.07798895,8.45217017 3.81451378,8.47809948 3.646,8.646 L1,11 L1,2 C1,1.44771525 1.44771525,1 2,1 L14,1 Z"/></g></g></svg>