<svg xmlns="http://www.w3.org/2000/svg" width="32" height="32" viewBox="0 0 32 32"><g fill="none" fill-rule="evenodd"><rect width="32" height="32" fill="#FFF"/><g fill="#000" fill-rule="nonzero" transform="translate(2 3)"><path d="M4,2.5 C4,2.77614237 3.55228475,3 3,3 C2.44771525,3 2,2.77614237 2,2.5 C2,2.22385763 2.44771525,2 3,2 C3.55228475,2 4,2.22385763 4,2.5 L4,2.5 Z"/><path d="M6.66666667,0 L1.33333333,0 C0.596953667,0 0,0.44771525 0,1 L0,7 C0,7.55228475 0.596953667,8 1.33333333,8 L6.66666667,8 C7.40304633,8 8,7.55228475 8,7 L8,1 C8,0.44771525 7.40304633,0 6.66666667,0 Z M0.666666667,1 C0.666666667,0.723857625 0.9651435,0.5 1.33333333,0.5 L6.66666667,0.5 C7.0348565,0.5 7.33333333,0.723857625 7.33333333,1 L7.33333333,5 L5.94466667,3.9585 C5.87538076,3.90661558 5.77918394,3.88020104 5.68160894,3.88626738 C5.58403394,3.89233372 5.49494929,3.9302674 5.438,3.99 L4,5.5 L2.55666667,4.85 C2.42535828,4.79102974 2.25737822,4.80670054 2.14933333,4.888 L0.666666667,6 L0.666666667,1 Z"/></g><g fill="#000" fill-rule="nonzero" transform="translate(12 3)"><path d="M4,2.5 C4,2.77614237 3.55228475,3 3,3 C2.44771525,3 2,2.77614237 2,2.5 C2,2.22385763 2.44771525,2 3,2 C3.55228475,2 4,2.22385763 4,2.5 L4,2.5 Z"/><path d="M6.66666667,0 L1.33333333,0 C0.596953667,0 0,0.44771525 0,1 L0,7 C0,7.55228475 0.596953667,8 1.33333333,8 L6.66666667,8 C7.40304633,8 8,7.55228475 8,7 L8,1 C8,0.44771525 7.40304633,0 6.66666667,0 Z M0.666666667,1 C0.666666667,0.723857625 0.9651435,0.5 1.33333333,0.5 L6.66666667,0.5 C7.0348565,0.5 7.33333333,0.723857625 7.33333333,1 L7.33333333,5 L5.94466667,3.9585 C5.87538076,3.90661558 5.77918394,3.88020104 5.68160894,3.88626738 C5.58403394,3.89233372 5.49494929,3.9302674 5.438,3.99 L4,5.5 L2.55666667,4.85 C2.42535828,4.79102974 2.25737822,4.80670054 2.14933333,4.888 L0.666666667,6 L0.666666667,1 Z"/></g><g fill="#000" fill-rule="nonzero" transform="translate(22 3)"><path d="M4,2.5 C4,2.77614237 3.55228475,3 3,3 C2.44771525,3 2,2.77614237 2,2.5 C2,2.22385763 2.44771525,2 3,2 C3.55228475,2 4,2.22385763 4,2.5 L4,2.5 Z"/><path d="M6.66666667,0 L1.33333333,0 C0.596953667,0 0,0.44771525 0,1 L0,7 C0,7.55228475 0.596953667,8 1.33333333,8 L6.66666667,8 C7.40304633,8 8,7.55228475 8,7 L8,1 C8,0.44771525 7.40304633,0 6.66666667,0 Z M0.666666667,1 C0.666666667,0.723857625 0.9651435,0.5 1.33333333,0.5 L6.66666667,0.5 C7.0348565,0.5 7.33333333,0.723857625 7.33333333,1 L7.33333333,5 L5.94466667,3.9585 C5.87538076,3.90661558 5.77918394,3.88020104 5.68160894,3.88626738 C5.58403394,3.89233372 5.49494929,3.9302674 5.438,3.99 L4,5.5 L2.55666667,4.85 C2.42535828,4.79102974 2.25737822,4.80670054 2.14933333,4.888 L0.666666667,6 L0.666666667,1 Z"/></g><g fill="#000" fill-rule="nonzero" transform="translate(2 12)"><path d="M4,2.5 C4,2.77614237 3.55228475,3 3,3 C2.44771525,3 2,2.77614237 2,2.5 C2,2.22385763 2.44771525,2 3,2 C3.55228475,2 4,2.22385763 4,2.5 L4,2.5 Z"/><path d="M6.66666667,0 L1.33333333,0 C0.596953667,0 0,0.44771525 0,1 L0,7 C0,7.55228475 0.596953667,8 1.33333333,8 L6.66666667,8 C7.40304633,8 8,7.55228475 8,7 L8,1 C8,0.44771525 7.40304633,0 6.66666667,0 Z M0.666666667,1 C0.666666667,0.723857625 0.9651435,0.5 1.33333333,0.5 L6.66666667,0.5 C7.0348565,0.5 7.33333333,0.723857625 7.33333333,1 L7.33333333,5 L5.94466667,3.9585 C5.87538076,3.90661558 5.77918394,3.88020104 5.68160894,3.88626738 C5.58403394,3.89233372 5.49494929,3.9302674 5.438,3.99 L4,5.5 L2.55666667,4.85 C2.42535828,4.79102974 2.25737822,4.80670054 2.14933333,4.888 L0.666666667,6 L0.666666667,1 Z"/></g><g fill="#000" fill-rule="nonzero" transform="translate(12 12)"><path d="M4,2.5 C4,2.77614237 3.55228475,3 3,3 C2.44771525,3 2,2.77614237 2,2.5 C2,2.22385763 2.44771525,2 3,2 C3.55228475,2 4,2.22385763 4,2.5 L4,2.5 Z"/><path d="M6.66666667,0 L1.33333333,0 C0.596953667,0 0,0.44771525 0,1 L0,7 C0,7.55228475 0.596953667,8 1.33333333,8 L6.66666667,8 C7.40304633,8 8,7.55228475 8,7 L8,1 C8,0.44771525 7.40304633,0 6.66666667,0 Z M0.666666667,1 C0.666666667,0.723857625 0.9651435,0.5 1.33333333,0.5 L6.66666667,0.5 C7.0348565,0.5 7.33333333,0.723857625 7.33333333,1 L7.33333333,5 L5.94466667,3.9585 C5.87538076,3.90661558 5.77918394,3.88020104 5.68160894,3.88626738 C5.58403394,3.89233372 5.49494929,3.9302674 5.438,3.99 L4,5.5 L2.55666667,4.85 C2.42535828,4.79102974 2.25737822,4.80670054 2.14933333,4.888 L0.666666667,6 L0.666666667,1 Z"/></g><g fill="#000" fill-rule="nonzero" transform="translate(22 12)"><path d="M4,2.5 C4,2.77614237 3.55228475,3 3,3 C2.44771525,3 2,2.77614237 2,2.5 C2,2.22385763 2.44771525,2 3,2 C3.55228475,2 4,2.22385763 4,2.5 L4,2.5 Z"/><path d="M6.66666667,0 L1.33333333,0 C0.596953667,0 0,0.44771525 0,1 L0,7 C0,7.55228475 0.596953667,8 1.33333333,8 L6.66666667,8 C7.40304633,8 8,7.55228475 8,7 L8,1 C8,0.44771525 7.40304633,0 6.66666667,0 Z M0.666666667,1 C0.666666667,0.723857625 0.9651435,0.5 1.33333333,0.5 L6.66666667,0.5 C7.0348565,0.5 7.33333333,0.723857625 7.33333333,1 L7.33333333,5 L5.94466667,3.9585 C5.87538076,3.90661558 5.77918394,3.88020104 5.68160894,3.88626738 C5.58403394,3.89233372 5.49494929,3.9302674 5.438,3.99 L4,5.5 L2.55666667,4.85 C2.42535828,4.79102974 2.25737822,4.80670054 2.14933333,4.888 L0.666666667,6 L0.666666667,1 Z"/></g><g fill="#000" fill-rule="nonzero" transform="translate(2 21)"><path d="M4,2.5 C4,2.77614237 3.55228475,3 3,3 C2.44771525,3 2,2.77614237 2,2.5 C2,2.22385763 2.44771525,2 3,2 C3.55228475,2 4,2.22385763 4,2.5 L4,2.5 Z"/><path d="M6.66666667,0 L1.33333333,0 C0.596953667,0 0,0.44771525 0,1 L0,7 C0,7.55228475 0.596953667,8 1.33333333,8 L6.66666667,8 C7.40304633,8 8,7.55228475 8,7 L8,1 C8,0.44771525 7.40304633,0 6.66666667,0 Z M0.666666667,1 C0.666666667,0.723857625 0.9651435,0.5 1.33333333,0.5 L6.66666667,0.5 C7.0348565,0.5 7.33333333,0.723857625 7.33333333,1 L7.33333333,5 L5.94466667,3.9585 C5.87538076,3.90661558 5.77918394,3.88020104 5.68160894,3.88626738 C5.58403394,3.89233372 5.49494929,3.9302674 5.438,3.99 L4,5.5 L2.55666667,4.85 C2.42535828,4.79102974 2.25737822,4.80670054 2.14933333,4.888 L0.666666667,6 L0.666666667,1 Z"/></g><g fill="#000" fill-rule="nonzero" transform="translate(12 21)"><path d="M4,2.5 C4,2.77614237 3.55228475,3 3,3 C2.44771525,3 2,2.77614237 2,2.5 C2,2.22385763 2.44771525,2 3,2 C3.55228475,2 4,2.22385763 4,2.5 L4,2.5 Z"/><path d="M6.66666667,0 L1.33333333,0 C0.596953667,0 0,0.44771525 0,1 L0,7 C0,7.55228475 0.596953667,8 1.33333333,8 L6.66666667,8 C7.40304633,8 8,7.55228475 8,7 L8,1 C8,0.44771525 7.40304633,0 6.66666667,0 Z M0.666666667,1 C0.666666667,0.723857625 0.9651435,0.5 1.33333333,0.5 L6.66666667,0.5 C7.0348565,0.5 7.33333333,0.723857625 7.33333333,1 L7.33333333,5 L5.94466667,3.9585 C5.87538076,3.90661558 5.77918394,3.88020104 5.68160894,3.88626738 C5.58403394,3.89233372 5.49494929,3.9302674 5.438,3.99 L4,5.5 L2.55666667,4.85 C2.42535828,4.79102974 2.25737822,4.80670054 2.14933333,4.888 L0.666666667,6 L0.666666667,1 Z"/></g><g fill="#000" fill-rule="nonzero" transform="translate(22 21)"><path d="M4,2.5 C4,2.77614237 3.55228475,3 3,3 C2.44771525,3 2,2.77614237 2,2.5 C2,2.22385763 2.44771525,2 3,2 C3.55228475,2 4,2.22385763 4,2.5 L4,2.5 Z"/><path d="M6.66666667,0 L1.33333333,0 C0.596953667,0 0,0.44771525 0,1 L0,7 C0,7.55228475 0.596953667,8 1.33333333,8 L6.66666667,8 C7.40304633,8 8,7.55228475 8,7 L8,1 C8,0.44771525 7.40304633,0 6.66666667,0 Z M0.666666667,1 C0.666666667,0.723857625 0.9651435,0.5 1.33333333,0.5 L6.66666667,0.5 C7.0348565,0.5 7.33333333,0.723857625 7.33333333,1 L7.33333333,5 L5.94466667,3.9585 C5.87538076,3.90661558 5.77918394,3.88020104 5.68160894,3.88626738 C5.58403394,3.89233372 5.49494929,3.9302674 5.438,3.99 L4,5.5 L2.55666667,4.85 C2.42535828,4.79102974 2.25737822,4.80670054 2.14933333,4.888 L0.666666667,6 L0.666666667,1 Z"/></g></g></svg>