<svg xmlns="http://www.w3.org/2000/svg" width="32" height="32" viewBox="0 0 32 32"><g fill="none" fill-rule="evenodd"><rect width="32" height="32" fill="#FFF"/><path fill="#000" fill-rule="nonzero" d="M23.5503722,16.9060087 L23.5503722,3.41613845 L3.41613845,3.41613845 L3.41613845,28.5839306 L12.6778528,28.5839306 C13.3422961,28.5839306 13.8858875,29.1275221 13.8858875,29.7919653 C13.8858875,30.4564086 13.3422961,31 12.6778528,31 L2.20803468,31 C1.54359142,31 1,30.4564086 1,29.7919653 L1,2.20803468 C1,1.54359142 1.54366052,1 2.20803468,1 L24.7583378,1 C25.422781,1 25.9663725,1.54359142 25.9663725,2.20803468 L25.9663725,16.9060087 C25.9663725,17.570452 25.422781,18.1140434 24.7583378,18.1140434 C24.0938945,18.1140434 23.5503722,17.570452 23.5503722,16.9060087 Z M29.7718579,19.8456312 C29.2684813,19.402646 28.5034319,19.4429299 28.0604466,19.9463065 L21.4362597,27.3154355 L18.1141125,24.1140711 C17.6309125,23.6509784 16.8657939,23.6710858 16.4027013,24.154355 C15.9396086,24.6376241 15.9597161,25.4026736 16.4429852,25.8657662 L20.6711411,29.9328555 C20.8925992,30.1543135 21.1946251,30.2751654 21.5167585,30.2751654 C21.5368659,30.2751654 21.5368659,30.2751654 21.5570424,30.2751654 C21.8791758,30.2550579 22.2013092,30.1140987 22.4026598,29.8724641 L29.8523567,21.5771499 C30.3154493,21.0536659 30.2751654,20.2886164 29.7718579,19.8456312 Z M19.1207966,8.04699563 L8.24834626,8.04699563 C7.58390301,8.04699563 7.04031158,8.59058705 7.04031158,9.25503031 C7.04031158,9.91947357 7.58390301,10.463065 8.24834626,10.463065 L19.1207966,10.463065 C19.7852398,10.463065 20.3288312,9.91947357 20.3288312,9.25503031 C20.3288312,8.59058705 19.7852398,8.04699563 19.1207966,8.04699563 Z M20.3289003,15.8993247 C20.3289003,15.2348814 19.7853089,14.69129 19.1208657,14.69129 L8.24834626,14.69129 C7.58390301,14.69129 7.04031158,15.2348814 7.04031158,15.8993247 C7.04031158,16.5637679 7.58390301,17.1073594 8.24834626,17.1073594 L19.1207966,17.1073594 C19.7852398,17.1073594 20.3289003,16.5637679 20.3289003,15.8993247 Z M8.24834626,21.1342338 C7.58390301,21.1342338 7.04031158,21.6778252 7.04031158,22.3422684 C7.04031158,23.0067117 7.58390301,23.5503031 8.24834626,23.5503031 L11.4698181,23.5503031 C12.1342614,23.5503031 12.6778528,23.0067117 12.6778528,22.3422684 C12.6778528,21.6778252 12.1342614,21.1342338 11.4698181,21.1342338 L8.24834626,21.1342338 Z"/></g></svg>