<svg xmlns="http://www.w3.org/2000/svg" width="32" height="32" viewBox="0 0 32 32"><g fill="none" fill-rule="evenodd"><rect width="32" height="32" fill="#FFF"/><path fill="#000" fill-rule="nonzero" d="M0,0.5 C0,0.223857625 0.26862915,0 0.6,0 L11.4,0 C11.7313708,0 12,0.223857625 12,0.5 C12,0.776142375 11.7313708,1 11.4,1 L0.6,1 C0.26862915,1 0,0.776142375 0,0.5 Z M0,2.5 C0,2.22385763 0.26862915,2 0.6,2 L11.4,2 C11.7313708,2 12,2.22385763 12,2.5 C12,2.77614237 11.7313708,3 11.4,3 L0.6,3 C0.26862915,3 0,2.77614237 0,2.5 Z M0,4.5 C0,4.22385763 0.26862915,4 0.6,4 L7.8,4 C8.13137085,4 8.4,4.22385763 8.4,4.5 C8.4,4.77614237 8.13137085,5 7.8,5 L0.6,5 C0.26862915,5 0,4.77614237 0,4.5 Z" transform="translate(16 2)"/><g fill="#000" fill-rule="nonzero" transform="translate(2 1)"><path d="M6,4 C6,4.55228475 5.32842712,5 4.5,5 C3.67157288,5 3,4.55228475 3,4 C3,3.44771525 3.67157288,3 4.5,3 C5.32842712,3 6,3.44771525 6,4 L6,4 Z"/><path d="M10,0 L2,0 C0.8954305,0 0,0.671572875 0,1.5 L0,10.5 C0,11.3284271 0.8954305,12 2,12 L10,12 C11.1045695,12 12,11.3284271 12,10.5 L12,1.5 C12,0.671572875 11.1045695,0 10,0 Z M1,1.5 C1,1.08578644 1.44771525,0.75 2,0.75 L10,0.75 C10.5522847,0.75 11,1.08578644 11,1.5 L11,7.5 L8.917,5.93775 C8.81307114,5.85992336 8.66877591,5.82030156 8.52241341,5.82940107 C8.37605091,5.83850058 8.24242394,5.8954011 8.157,5.985 L6,8.25 L3.835,7.275 C3.63803742,7.1865446 3.38606733,7.21005082 3.224,7.332 L1,9 L1,1.5 Z"/></g><g fill="#000" fill-rule="nonzero" transform="translate(16 9)"><path d="M3.56870173,0 L1.99964608,0 C0.89527204,0 0,0.89543045 0,2 C0,3.10456927 0.89527204,4 1.99964608,4 L3.99929219,4 C4.64863196,4.00034026 5.25770675,3.68530784 5.63274225,3.15512856 C6.00777774,2.62494928 6.10207173,1.94564501 5.88562502,1.33333324 L5.33238959,1.33333324 C5.2750664,1.33333324 5.21907631,1.33999991 5.16575242,1.35399991 C5.3944759,1.76704571 5.38772956,2.27027717 5.14801567,2.67704086 C4.90830177,3.08380455 4.47137366,3.33343167 3.99929219,3.3333331 L1.99964608,3.3333331 C1.26339671,3.3333331 0.666548673,2.73637948 0.666548673,2 C0.666548673,1.26362025 1.26339671,0.666666621 1.99964608,0.666666621 L3.02279834,0.666666621 C3.16810595,0.415999971 3.35273995,0.190666654 3.56936827,0 L3.56870173,0 Z"/><path d="M5.00070779,0 C4.35136803,-0.000340259531 3.74229324,0.314692164 3.36725775,0.844871441 C2.99222226,1.37505072 2.89792827,2.05435499 3.11437498,2.66666676 L3.84624545,2.66666676 C3.60811356,2.25413726 3.60811034,1.74588071 3.84623698,1.33334818 C4.08436363,0.920815658 4.52444402,0.666678997 5.00070779,0.666666896 L7.00035388,0.666666896 C7.73660324,0.666666896 8.33345127,1.26362052 8.33345127,2 C8.33345127,2.73637975 7.73660324,3.33333338 7.00035388,3.33333338 L5.97720163,3.33333338 C5.83217728,3.5836014 5.64759951,3.80873606 5.4306317,4 L7.00035388,4 C7.71475863,4 8.37489584,3.61880219 8.73209822,3 C9.08930059,2.38119796 9.08930059,1.61880231 8.73209822,1 C8.37489584,0.381198083 7.71475863,0 7.00035388,0 L5.00070779,0 Z"/></g><path fill="#000" fill-rule="nonzero" d="M0,0.5 C0,0.223857625 0.26862915,0 0.6,0 L11.4,0 C11.7313708,0 12,0.223857625 12,0.5 C12,0.776142375 11.7313708,1 11.4,1 L0.6,1 C0.26862915,1 0,0.776142375 0,0.5 Z M0,2.5 C0,2.22385763 0.26862915,2 0.6,2 L11.4,2 C11.7313708,2 12,2.22385763 12,2.5 C12,2.77614237 11.7313708,3 11.4,3 L0.6,3 C0.26862915,3 0,2.77614237 0,2.5 Z M0,4.5 C0,4.22385763 0.26862915,4 0.6,4 L7.8,4 C8.13137085,4 8.4,4.22385763 8.4,4.5 C8.4,4.77614237 8.13137085,5 7.8,5 L0.6,5 C0.26862915,5 0,4.77614237 0,4.5 Z" transform="translate(16 17)"/><g fill="#000" fill-rule="nonzero" transform="translate(2 16)"><path d="M6,4 C6,4.55228475 5.32842712,5 4.5,5 C3.67157288,5 3,4.55228475 3,4 C3,3.44771525 3.67157288,3 4.5,3 C5.32842712,3 6,3.44771525 6,4 L6,4 Z"/><path d="M10,0 L2,0 C0.8954305,0 0,0.671572875 0,1.5 L0,10.5 C0,11.3284271 0.8954305,12 2,12 L10,12 C11.1045695,12 12,11.3284271 12,10.5 L12,1.5 C12,0.671572875 11.1045695,0 10,0 Z M1,1.5 C1,1.08578644 1.44771525,0.75 2,0.75 L10,0.75 C10.5522847,0.75 11,1.08578644 11,1.5 L11,7.5 L8.917,5.93775 C8.81307114,5.85992336 8.66877591,5.82030156 8.52241341,5.82940107 C8.37605091,5.83850058 8.24242394,5.8954011 8.157,5.985 L6,8.25 L3.835,7.275 C3.63803742,7.1865446 3.38606733,7.21005082 3.224,7.332 L1,9 L1,1.5 Z"/></g><g fill="#000" fill-rule="nonzero" transform="translate(16 24)"><path d="M3.56870173,0 L1.99964608,0 C0.89527204,0 0,0.89543045 0,2 C0,3.10456927 0.89527204,4 1.99964608,4 L3.99929219,4 C4.64863196,4.00034026 5.25770675,3.68530784 5.63274225,3.15512856 C6.00777774,2.62494928 6.10207173,1.94564501 5.88562502,1.33333324 L5.33238959,1.33333324 C5.2750664,1.33333324 5.21907631,1.33999991 5.16575242,1.35399991 C5.3944759,1.76704571 5.38772956,2.27027717 5.14801567,2.67704086 C4.90830177,3.08380455 4.47137366,3.33343167 3.99929219,3.3333331 L1.99964608,3.3333331 C1.26339671,3.3333331 0.666548673,2.73637948 0.666548673,2 C0.666548673,1.26362025 1.26339671,0.666666621 1.99964608,0.666666621 L3.02279834,0.666666621 C3.16810595,0.415999971 3.35273995,0.190666654 3.56936827,0 L3.56870173,0 Z"/><path d="M5.00070779,0 C4.35136803,-0.000340259531 3.74229324,0.314692164 3.36725775,0.844871441 C2.99222226,1.37505072 2.89792827,2.05435499 3.11437498,2.66666676 L3.84624545,2.66666676 C3.60811356,2.25413726 3.60811034,1.74588071 3.84623698,1.33334818 C4.08436363,0.920815658 4.52444402,0.666678997 5.00070779,0.666666896 L7.00035388,0.666666896 C7.73660324,0.666666896 8.33345127,1.26362052 8.33345127,2 C8.33345127,2.73637975 7.73660324,3.33333338 7.00035388,3.33333338 L5.97720163,3.33333338 C5.83217728,3.5836014 5.64759951,3.80873606 5.4306317,4 L7.00035388,4 C7.71475863,4 8.37489584,3.61880219 8.73209822,3 C9.08930059,2.38119796 9.08930059,1.61880231 8.73209822,1 C8.37489584,0.381198083 7.71475863,0 7.00035388,0 L5.00070779,0 Z"/></g></g></svg>