<svg xmlns="http://www.w3.org/2000/svg" width="32" height="32" viewBox="0 0 32 32"><g fill="none" fill-rule="evenodd"><rect width="32" height="32" fill="#FFF"/><path fill="#000" fill-rule="nonzero" d="M20.125,1.80390849 C19.1871778,1.80390849 18.3205944,2.31835366 17.8516833,3.1534575 C17.3827722,3.98856135 17.3827722,5.01745172 17.8516833,5.85255556 C18.3205944,6.68765941 19.1871778,7.20210457 20.125,7.20210457 C21.5747475,7.20210457 22.75,5.9936772 22.75,4.50300653 C22.75,3.01233586 21.5747475,1.80390849 20.125,1.80390849 Z M15.8375,3.60330719 C16.2515434,1.50671623 18.0443536,0 20.125,0 C22.2056464,0 23.9984566,1.50671623 24.4125,3.60330719 L28,3.60330719 L28,5.40270588 L24.4125,5.40270588 C23.9984566,7.49929684 22.2056464,9.00601307 20.125,9.00601307 C18.0443536,9.00601307 16.2515434,7.49929684 15.8375,5.40270588 L0,5.40270588 L0,3.60330719 L15.8375,3.60330719 Z M7.875,10.800902 C6.42525253,10.800902 5.25,12.0093293 5.25,13.5 C5.25,14.9906707 6.42525253,16.199098 7.875,16.199098 C9.32474747,16.199098 10.5,14.9906707 10.5,13.5 C10.5,12.0093293 9.32474747,10.800902 7.875,10.800902 L7.875,10.800902 Z M3.5875,12.6003007 C4.00154341,10.5037097 5.79435359,8.99699347 7.875,8.99699347 C9.95564641,8.99699347 11.7484566,10.5037097 12.1625,12.6003007 L28,12.6003007 L28,14.3996993 L12.1625,14.3996993 C11.7484566,16.4962903 9.95564641,18.0030065 7.875,18.0030065 C5.79435359,18.0030065 4.00154341,16.4962903 3.5875,14.3996993 L0,14.3996993 L0,12.6003007 L3.5875,12.6003007 Z M20.125,19.7978954 C18.6752525,19.7978954 17.5,21.0063228 17.5,22.4969935 C17.5,23.9876642 18.6752525,25.1960915 20.125,25.1960915 C21.5747475,25.1960915 22.75,23.9876642 22.75,22.4969935 C22.75,21.0063228 21.5747475,19.7978954 20.125,19.7978954 Z M15.8375,21.5972941 C16.2515434,19.5007032 18.0443536,17.9939869 20.125,17.9939869 C22.2056464,17.9939869 23.9984566,19.5007032 24.4125,21.5972941 L28,21.5972941 L28,23.3966928 L24.4125,23.3966928 C23.9984566,25.4932838 22.2056464,27 20.125,27 C18.0443536,27 16.2515434,25.4932838 15.8375,23.3966928 L0,23.3966928 L0,21.5972941 L15.8375,21.5972941 L15.8375,21.5972941 Z" transform="translate(2 3)"/></g></svg>