<svg xmlns="http://www.w3.org/2000/svg" width="100" height="100" viewBox="0 0 100 100"><g fill="none" fill-rule="evenodd"><path stroke="#979797" d="M94.5,38.5 L94.5,94.5 L5.5,94.5 L5.5,38.5 L94.5,38.5 Z"/><g fill-rule="nonzero" transform="translate(5 4)"><rect width="90" height="28" fill="gray"/><polygon fill="#E7E7E7" points="0 0 90 0 90 16.649 63.621 11.297 38.793 20.811 18.621 16.649 0 22"/><path fill="gray" d="M35,5 C35,7.209139 30.0751322,9 24,9 C17.9248678,9 13,7.209139 13,5 C13,2.790861 17.9248678,1 24,1 C30.0751322,1 35,2.790861 35,5 L35,5 Z"/></g><rect width="47" height="7" x="10" y="20" fill="#000"/><path stroke="#979797" d="M94.5,3.5 L94.5,31.5 L5.5,31.5 L5.5,3.5 L94.5,3.5 Z"/></g></svg>