<svg xmlns="http://www.w3.org/2000/svg" width="100" height="100" viewBox="0 0 100 100"><g fill="none" fill-rule="evenodd"><path stroke="#979797" d="M94.5 55.5 94.5 94.5 5.5 94.5 5.5 55.5 94.5 55.5ZM45.5 19.5 45.5 46.5 5.5 46.5 5.5 19.5 45.5 19.5Z"/><rect width="90" height="7" x="5" y="5" fill="#000"/><g fill-rule="nonzero" transform="translate(60 20)"><rect width="34" height="28" fill="gray"/><polygon fill="#E7E7E7" points="0 0 34 0 34 16.649 24.034 11.297 14.655 20.811 7.034 16.649 0 22"/><path fill="gray" d="M13,5 C13,7.209139 11.209139,9 9,9 C6.790861,9 5,7.209139 5,5 C5,2.790861 6.790861,1 9,1 C11.209139,1 13,2.790861 13,5 L13,5 Z"/></g><path stroke="#979797" d="M93.5,19.5 L93.5,47.5 L59.5,47.5 L59.5,19.5 L93.5,19.5 Z"/></g></svg>