<svg xmlns="http://www.w3.org/2000/svg" width="600" height="600" viewBox="0 0 600 600"><g fill="none" fill-rule="evenodd"><rect width="600" height="600" fill="#001E49"/><g fill-rule="nonzero" transform="translate(199 173)"><path fill="#00A4AF" d="M57.4728033,70 C25.7782427,70 0,95.8248175 0,127.576642 L0,201.029197 C0,208.649635 6.33891213,215 13.9456067,215 C21.5523013,215 27.8912134,208.649635 27.8912134,201.029197 L27.8912134,127.576642 C27.8912134,111.277372 41.2029289,97.9416058 57.4728033,97.9416058 C73.7426778,97.9416058 86.8430962,111.065693 87.0543933,127.364964 C87.0543933,113.182482 92.3368201,100.058394 101,89.8978102 C90.2238494,77.8321168 74.7991632,70 57.4728033,70 Z"/><path fill="#D9328A" d="M144.527197,70 C127.200837,70 111.564854,77.8321168 101,89.8978102 C109.66318,99.8467153 114.945607,112.970803 114.945607,127.364964 C114.945607,111.065693 128.257322,97.9416058 144.527197,97.9416058 C160.797071,97.9416058 174.108787,111.277372 174.108787,127.576642 L174.108787,201.029197 C174.108787,208.649635 180.447699,215 188.054393,215 C195.661088,215 202,208.649635 202,201.029197 L202,127.576642 C202,95.8248175 176.221757,70 144.527197,70 Z"/><circle cx="58" cy="25" r="25" fill="#D9328A"/><circle cx="144" cy="25" r="25" fill="#00A4AF"/><path fill="#474695" d="M115,127.5 C115,113.305085 109.69697,100.169492 101,90 C92.3030303,99.9576271 87,113.09322 87,127.5 C87,127.5 87,127.5 87,127.5 L87,201.016949 C87,208.644068 93.3636364,215 101,215 C101,215 101,215 101,215 C101,215 101,215 101,215 C108.636364,215 115,208.644068 115,201.016949 L115,127.5 C115,127.5 115,127.5 115,127.5 Z"/></g></g></svg>