<svg xmlns="http://www.w3.org/2000/svg" width="1024" height="1024" viewBox="0 0 1024 1024"><path d="M832.002,510.85825 C832.002,427.74325 805.633,365.91925 743.852,304.18125 C727.169,287.54125 700.204,287.54125 683.521,304.18125 C666.838,320.86425 666.838,347.87225 683.521,364.55425 C729.558,410.54925 746.668,450.18625 746.668,510.85825 C746.668,573.53525 722.263,632.45825 677.932,676.74625 C635.095,719.54125 589.271,740.83125 531.671,744.71425 L584.834,691.50925 C601.517,674.82625 601.517,647.86125 584.834,631.17825 C568.151,614.49525 541.186,614.49525 524.503,631.17825 L366.338,789.34325 L524.503,947.50825 C532.823,955.82825 543.746,960.00925 554.668,960.00925 C565.59,960.00925 576.513,955.82825 584.833,947.50825 C601.516,930.82525 601.516,903.86025 584.833,887.17725 L527.788,830.17425 C609.836,826.67525 678.913,796.38225 738.263,737.11825 C798.11741,677.30641 831.333682,597.966077 831.992022,513.420806 L832.002,510.85825 Z M277.334,512.01025 C277.334,449.33325 301.739,390.41025 346.07,346.07925 C389.121,303.02825 435.329,281.73825 493.569,278.06825 L439.169,332.46825 C422.486,349.15125 422.486,376.11625 439.169,392.79925 C447.489,401.16225 458.412,405.34325 469.334,405.34325 C480.256,405.34325 491.179,401.16225 499.499,392.84225 L657.664,234.67725 L499.499,76.51225 C482.816,59.82925 455.851,59.82925 439.168,76.51225 C422.485,93.19525 422.485,120.16025 439.168,136.84325 L495.104,192.77925 C413.44,196.44825 344.704,226.74225 285.739,285.75025 C225.28,346.16625 192,426.50725 192,512.01125 C192,595.12625 218.368,656.95025 280.149,718.68825 C288.469,727.00825 299.392,731.14725 310.314,731.14725 C321.236,731.14725 332.159,726.96625 340.479,718.64625 C357.162,701.96325 357.162,674.95525 340.479,658.27325 C294.90237,612.78077 277.677093,573.477621 277.337145,513.826127 L277.334,512.01025 Z"/></svg>