<svg xmlns="http://www.w3.org/2000/svg" width="1024" height="1024" viewBox="0 0 1024 1024"><path d="M125.94025,648.994 L465.18625,987.277 C477.94825,1000.002 494.96325,1006.365 511.97925,1006.365 C528.99525,1006.365 546.01025,1000.002 558.77225,987.277 L898.01825,648.994 C923.54125,623.543 923.54125,581.125 898.01825,555.675 C872.49525,530.225 829.95625,530.224 804.43325,555.675 L580.04125,779.429 L580.04125,65.748 C580.04125,29.693 550.26425,1.13686838e-13 514.10625,1.13686838e-13 C477.94825,1.13686838e-13 448.17125,29.693 448.17125,65.748 L448.17125,784.731 L219.52525,556.735 C194.00225,531.284 151.46325,531.284 125.94025,556.735 C99.35325,582.186 99.35325,621.422 125.94025,648.994 Z"/></svg>