<svg xmlns="http://www.w3.org/2000/svg" width="1024" height="1024" viewBox="0 0 1024 1024"><path d="M657.39175,897.8225 L995.67475,558.5765 C1008.39975,545.8145 1014.76275,528.7995 1014.76275,511.7835 C1014.76275,494.7675 1008.39975,477.7525 995.67475,464.9905 L657.39175,125.7445 C631.94075,100.2215 589.52275,100.2215 564.07275,125.7445 C538.62275,151.2675 538.62175,193.8065 564.07275,219.3295 L787.82675,443.7215 L74.14575,443.7215 C38.09075,443.7215 8.39775,473.4985 8.39775,509.6565 C8.39775,545.8145 38.09075,575.5915 74.14575,575.5915 L793.12875,575.5915 L565.13275,804.2375 C539.68175,829.7605 539.68175,872.2995 565.13275,897.8225 C590.58375,924.4095 629.81975,924.4095 657.39175,897.8225 Z"/></svg>