<svg xmlns="http://www.w3.org/2000/svg" width="1024" height="1024" viewBox="0 0 1024 1024"><path d="M365.76875,126.5425 L27.48575,465.7885 C14.76075,478.5505 8.39775,495.5655 8.39775,512.5815 C8.39775,529.5975 14.76075,546.6125 27.48575,559.3745 L365.76875,898.6205 C391.21975,924.1435 433.63775,924.1435 459.08775,898.6205 C484.53775,873.0975 484.53875,830.5585 459.08775,805.0355 L235.33375,580.6435 L949.01475,580.6435 C985.06975,580.6435 1014.76275,550.8665 1014.76275,514.7085 C1014.76275,478.5505 985.06975,448.7735 949.01475,448.7735 L230.03175,448.7735 L458.02775,220.1275 C483.47875,194.6045 483.47875,152.0655 458.02775,126.5425 C432.57675,99.9555 393.34075,99.9555 365.76875,126.5425 Z"/></svg>