<svg xmlns="http://www.w3.org/2000/svg" width="1024" height="1024" viewBox="0 0 1024 1024"><path d="M874.586,720.215 L652.967,498.596 C639.446,485.075 617.518,485.075 603.997,498.596 C590.471,512.12 590.471,534.043 603.997,547.569 L766.501,710.073 L174.629,710.073 C155.506,710.073 140.001,725.577 140.001,744.7 C140.001,763.821 155.506,779.327 174.629,779.327 L766.501,779.327 L604.002,941.831 C590.478,955.357 590.478,977.28 604.002,990.804 C610.76,997.56 619.627,1000.946 628.487,1000.946 C637.349,1000.946 646.212,997.56 652.975,990.804 L874.587,769.185 C887.97576,755.79624 888.109648,734.17562 874.988663,720.623193 L874.586,720.215 Z M150.143,303.731 L371.762,525.35 C385.284,538.871 407.212,538.871 420.733,525.35 C434.259,511.826 434.259,489.903 420.733,476.377 L258.229,313.873 L850.101,313.873 C869.224,313.873 884.728,298.369 884.728,279.246 C884.728,260.125 869.224,244.619 850.101,244.619 L258.229,244.619 L420.728,82.114 C434.252,68.59 434.252,46.666 420.728,33.142 C413.97,26.385 405.103,23 396.243,23 C387.381,23 378.518,26.385 371.756,33.142 L150.143,254.761 C136.75424,268.14976 136.620352,289.77038 149.741337,303.322807 L150.143,303.731 Z"/></svg>