<svg xmlns="http://www.w3.org/2000/svg" width="1024" height="1024" viewBox="0 0 1024 1024"><path d="M897.22025,366.371 L557.97425,28.088 C545.21225,15.363 528.19725,9 511.18125,9 C494.16525,9 477.15025,15.363 464.38825,28.088 L125.14225,366.371 C99.61925,391.822 99.61925,434.24 125.14225,459.69 C150.66525,485.14 193.20425,485.141 218.72725,459.69 L443.11925,235.936 L443.11925,949.617 C443.11925,985.672 472.89625,1015.365 509.05425,1015.365 C545.21225,1015.365 574.98925,985.672 574.98925,949.617 L574.98925,230.634 L803.63525,458.63 C829.15825,484.081 871.69725,484.081 897.22025,458.63 C923.80725,433.179 923.80725,393.943 897.22025,366.371 Z"/></svg>