<svg xmlns="http://www.w3.org/2000/svg" width="1024" height="1024" viewBox="0 0 1024 1024"><path d="M736,640 L800,640 C817.333,640 832.333,633.667 845,621 C857.667,608.333 864,593.333 864,576 L864,512 C864,494.667 857.667,479.667 845,467 C832.333,454.333 817.333,448 800,448 L736,448 C718.667,448 703.667,454.333 691,467 C678.333,479.667 672,494.667 672,512 L672,576 C672,593.333 678.333,608.333 691,621 C703.667,633.667 718.667,640 736,640 Z M736,512 L800,512 L800,576 L736,576 L736,512 Z M864,64 L736,64 L736,32 C736,23.333 732.833,15.833 726.5,9.5 C720.167,3.167 712.667,0 704,0 C695.333,0 687.833,3.167 681.5,9.5 C675.167,15.833 672,23.333 672,32 L672,64 L352,64 L352,32 C352,23.333 348.833,15.833 342.5,9.5 C336.167,3.167 328.667,0 320,0 C311.333,0 303.833,3.167 297.5,9.5 C291.167,15.833 288,23.333 288,32 L288,64 L160,64 C124.666,64 94.5,76.5 69.5,101.5 C44.5,126.5 32,156.666 32,192 L32,896 C32,931.334 44.5,961.5 69.5,986.5 C94.5,1011.5 124.666,1024 160,1024 L864,1024 C899.334,1024 929.5,1011.5 954.5,986.5 C979.5,961.5 992,931.334 992,896 L992,192 C992,156.666 979.5,126.5 954.5,101.5 C929.5,76.5 899.334,64 864,64 Z M928,896 C928,913.333 921.667,928.333 909,941 C896.333,953.667 881.333,960 864,960 L160,960 C142.667,960 127.667,953.667 115,941 C102.333,928.333 96,913.333 96,896 L96,320 L928,320 L928,896 Z M928,256 L96,256 L96,192 C96,174.667 102.333,159.667 115,147 C127.667,134.333 142.667,128 160,128 L288,128 L288,160 C288,168.667 291.167,176.167 297.5,182.5 C303.833,188.833 311.333,192 320,192 C328.667,192 336.167,188.833 342.5,182.5 C348.833,176.167 352,168.667 352,160 L352,128 L672,128 L672,160 C672,168.667 675.167,176.167 681.5,182.5 C687.833,188.833 695.333,192 704,192 C712.667,192 720.167,188.833 726.5,182.5 C732.833,176.167 736,168.667 736,160 L736,128 L864,128 C881.333,128 896.333,134.333 909,147 C921.667,159.667 928,174.667 928,192 L928,256 Z M224,896 L288,896 C305.333,896 320.333,889.667 333,877 C345.667,864.333 352,849.333 352,832 L352,768 C352,750.667 345.667,735.667 333,723 C320.333,710.333 305.333,704 288,704 L224,704 C206.667,704 191.667,710.333 179,723 C166.333,735.667 160,750.667 160,768 L160,832 C160,849.333 166.333,864.333 179,877 C191.667,889.667 206.667,896 224,896 Z M224,768 L288,768 L288,832 L224,832 L224,768 Z M480,896 L544,896 C561.333,896 576.333,889.667 589,877 C601.667,864.333 608,849.333 608,832 L608,768 C608,750.667 601.667,735.667 589,723 C576.333,710.333 561.333,704 544,704 L480,704 C462.667,704 447.667,710.333 435,723 C422.333,735.667 416,750.667 416,768 L416,832 C416,849.333 422.333,864.333 435,877 C447.667,889.667 462.667,896 480,896 Z M480,768 L544,768 L544,832 L480,832 L480,768 Z M736,896 L800,896 C817.333,896 832.333,889.667 845,877 C857.667,864.333 864,849.333 864,832 L864,768 C864,750.667 857.667,735.667 845,723 C832.333,710.333 817.333,704 800,704 L736,704 C718.667,704 703.667,710.333 691,723 C678.333,735.667 672,750.667 672,768 L672,832 C672,849.333 678.333,864.333 691,877 C703.667,889.667 718.667,896 736,896 Z M736,768 L800,768 L800,832 L736,832 L736,768 Z M480,640 L544,640 C561.333,640 576.333,633.667 589,621 C601.667,608.333 608,593.333 608,576 L608,512 C608,494.667 601.667,479.667 589,467 C576.333,454.333 561.333,448 544,448 L480,448 C462.667,448 447.667,454.333 435,467 C422.333,479.667 416,494.667 416,512 L416,576 C416,593.333 422.333,608.333 435,621 C447.667,633.667 462.667,640 480,640 Z M480,512 L544,512 L544,576 L480,576 L480,512 Z M224,640 L288,640 C305.333,640 320.333,633.667 333,621 C345.667,608.333 352,593.333 352,576 L352,512 C352,494.667 345.667,479.667 333,467 C320.333,454.333 305.333,448 288,448 L224,448 C206.667,448 191.667,454.333 179,467 C166.333,479.667 160,494.667 160,512 L160,576 C160,593.333 166.333,608.333 179,621 C191.667,633.667 206.667,640 224,640 Z M224,512 L288,512 L288,576 L224,576 L224,512 Z"/></svg>