<svg xmlns="http://www.w3.org/2000/svg" width="1024" height="1024" viewBox="0 0 1024 1024"><path d="M955.655125,67.46225 C912.374125,24.18125 842.197125,24.17925 798.915125,67.46225 L511.558125,354.81925 L224.201125,67.46225 C180.919125,24.18025 110.745125,24.17825 67.462125,67.46225 C24.181125,110.74325 24.180125,180.92025 67.462125,224.20225 L354.819125,511.55925 L67.461125,798.91725 C24.179125,842.19925 24.180125,912.37625 67.461125,955.65725 C110.745125,998.94125 180.918125,998.93925 224.201125,955.65725 L511.559125,668.29925 L798.916125,955.65625 C842.198125,998.93825 912.375125,998.93725 955.656125,955.65625 C998.940125,912.37225 998.938125,842.19925 955.656125,798.91725 L668.299125,511.56025 L955.656125,224.20325 C998.505305,181.35407 998.935757,112.148041 956.941659,68.7697832 L955.655125,67.46225 Z"/></svg>