<svg xmlns="http://www.w3.org/2000/svg" width="1024" height="1024" viewBox="0 0 1024 1024"><path d="M895.668,596.999 C870.068,596.999 853.001,614.066 853.001,639.666 L853.001,810.333 C853.001,835.933 835.934,853 810.334,853 L213.001,853 C187.401,853 170.334,835.933 170.334,810.333 L170.334,639.666 C170.334,614.066 153.267,596.999 127.667,596.999 C102.067,596.999 85,614.066 85,639.666 L85,810.333 C85,882.866 140.467,938.333 213,938.333 L810.333,938.333 C882.866,938.333 938.333,882.866 938.333,810.333 L938.333,639.666 C938.333,614.322 921.605633,597.341193 896.431432,597.004112 L895.668,596.999 Z M268.468,456.2 L482.964704,670.693498 C486.843645,674.54038 490.721909,678.066 494.601,678.066 C498.686426,682.151426 506.682512,682.325273 511.10076,682.332671 L512.844885,682.332671 C517.356526,682.302094 524.831149,681.969851 528.735,678.066 C533.002,673.799 537.268,673.799 541.535,669.533 L754.868,456.2 C771.935,439.133 771.935,413.533 754.868,396.467 C737.801,379.401 712.201,379.4 695.135,396.467 L554.335,537.267 L554.335,127.667 C554.335,102.067 537.268,85 511.668,85 C486.068,85 469.001,102.067 469.001,127.667 L469.001,537.267 L328.201,396.467 C311.134,379.4 285.534,379.4 268.468,396.467 C251.402,413.534 251.401,439.134 268.468,456.2 Z"/></svg>