<svg xmlns="http://www.w3.org/2000/svg" width="1024" height="1024" viewBox="0 0 1024 1024"><path d="M698,598 L842,598 L843.283528,591.999271 C848.826531,565.989796 854,539.857143 854,512 C854,482 848,454 842,426 L698,426 C702,454 704,482 704,512 C704,541.230769 702.101249,568.562788 698.303748,595.84612 L698,598 Z M622,834 C700,808 768,752 808,682 L682,682 C668,736 648,786 622,834 Z M612,598 C616,570 618,542 618,512 C618,482 616,454 612,426 L412,426 C408,454 406,482 406,512 C406,542 408,570 412,598 L612,598 Z M512,852 C548,800 576,744 594,682 L430,682 C448,744 476,800 512,852 Z M342,342 C356,288 376,238 402,190 C324,216 256,272 216,342 L342,342 Z M216,682 C256,752 324,808 402,834 C376,786 356,736 342,682 L216,682 Z M182,598 L326,598 C322,570 320,542 320,512 C320,482 322,454 326,426 L182,426 L180.716472,432.000729 C175.173469,458.010204 170,484.142857 170,512 C170,540.392857 175.374362,566.99426 181.036637,593.499693 L182,598 Z M512,172 C476,224 448,280 430,342 L594,342 C576,280 548,224 512,172 Z M808,342 C768,272 700,216 622,190 C648,238 668,288 682,342 L808,342 Z M512,86 C748,86 938,276 938,512 C938,748 748,938 512,938 C276,938 86,748 86,512 C86,276 276,86 512,86 Z"/></svg>