<svg xmlns="http://www.w3.org/2000/svg" width="1024" height="1024" viewBox="0 0 1024 1024"><path d="M950.858,823.144 L950.858,384.287 C938.858,398.001 925.715,410.573 911.429,422.001 C829.715,484.858 747.429,548.858 668,615.144 L662.808043,619.499072 C620.881502,654.5936 569.62284,695.144 512.571,695.144 L511.428,695.144 C451.999,695.144 398.857,651.144 355.999,615.144 C276.57,548.858 194.285,484.858 112.57,422.001 C98.284,410.572 85.141,398.001 73.141,384.287 L73.141,823.144 C73.141,832.858 81.712,841.43 91.427,841.43 L932.57,841.43 C942.177253,841.43 950.669423,833.046339 950.858,823.46385 L950.858,823.144 Z M950.858,222.572 L950.861886,221.7021 C950.985102,207.290337 953.8527,183.143 932.572,183.143 L91.429,183.143 C81.715,183.143 73.143,191.714 73.143,201.429 C73.143,266.572 105.714,323.143 157.143,363.715 C233.714,423.715 310.286,484.286 386.286,544.858 C416.572,569.429 471.429,622.001 511.429,622.001 L512.572,622.001 C552.572,622.001 607.429,569.43 637.715,544.858 C713.715,484.287 790.286,423.715 866.858,363.715 C904.001,334.572 950.858,271.144 950.858,222.572 Z M1024.001,201.429 L1024.001,823.143 C1024.001,873.429 982.858,914.572 932.572,914.572 L91.429,914.572 C41.143,914.572 0,873.429 0,823.143 L0,201.429 C0,151.143 41.143,110 91.429,110 L932.572,110 C982.858,110 1024.001,151.143 1024.001,201.429 Z"/></svg>