<svg xmlns="http://www.w3.org/2000/svg" width="1024" height="1024" viewBox="0 0 1024 1024"><path d="M70.8233267,747.235335 C38.3361794,747.235335 12,773.571514 12,806.058661 C12,838.545809 38.3361794,864.881988 70.8233267,864.881988 L953.176673,864.881988 C985.663821,864.881988 1012,838.545809 1012,806.058661 C1012,773.571514 985.663821,747.235335 953.176673,747.235335 L70.8233267,747.235335 Z M70.8233267,453.118012 C38.3361794,453.118012 12,479.454191 12,511.941339 C12,544.428486 38.3361794,570.764665 70.8233267,570.764665 L953.176673,570.764665 C985.663821,570.764665 1012,544.428486 1012,511.941339 C1012,479.454191 985.663821,453.118012 953.176673,453.118012 L70.8233267,453.118012 L70.8233267,453.118012 Z M70.8233267,159 C38.3361794,159 12,185.336179 12,217.823327 C12,250.310474 38.3361794,276.646653 70.8233267,276.646653 L953.176673,276.646653 C985.663821,276.646653 1012,250.310474 1012,217.823327 C1012,185.336179 985.663821,159 953.176673,159 L70.8233267,159 Z"/></svg>