<svg xmlns="http://www.w3.org/2000/svg" width="1024" height="1024" viewBox="0 0 1024 1024"><path d="M512,2.27373675e-13 C462.101,2.27373675e-13 421.647,40.453 421.647,90.353 L421.647,421.647 L90.353,421.647 C40.453,421.647 5.68434189e-14,462.097 5.68434189e-14,511.999 C5.68434189e-14,561.898 40.453,602.352 90.353,602.352 L421.647,602.352 L421.647,933.648 C421.647,983.548 462.101,1024.001 512,1024.001 C561.902,1024.001 602.353,983.548 602.353,933.648 L602.353,602.352 L933.647,602.352 C983.547,602.352 1024,561.898 1024,511.999 C1024,462.097 983.547,421.647 933.647,421.647 L602.353,421.647 L602.353,90.353 C602.353,40.453 561.902,2.27373675e-13 512,2.27373675e-13 Z"/></svg>