<svg xmlns="http://www.w3.org/2000/svg" width="1024" height="1024" viewBox="0 0 1024 1024"><path d="M1027.8811,389.91 C1019.7531,364.172 1002.1431,349.271 975.051096,345.207 L694.643096,304.568 L570.695096,50.575 C558.503096,26.192 538.861096,14 511.769096,14 C484.677096,14 465.034096,26.192 452.843096,50.575 L328.895096,304.568 L48.487096,345.207 C21.394096,349.271 3.784096,364.172 -4.342904,389.91 C-12.469904,415.648 -7.051904,437.999 11.913096,456.964 L215.107096,654.062 L166.340096,934.47 C162.276096,960.208 171.081096,981.205 192.755096,997.46 C203.592096,1005.588 216.461096,1009.652 231.362096,1009.652 C242.199096,1009.652 252.359096,1006.943 261.841096,1001.524 L511.770096,869.448 L761.699096,1001.524 C771.181096,1006.943 781.341096,1009.652 792.178096,1009.652 C807.079096,1009.652 819.948096,1005.588 830.785096,997.46 C852.459096,981.204 861.264096,960.208 857.200096,934.47 L808.433096,654.062 L1011.6271,456.964 C1030.5921,437.999 1036.0101,415.648 1027.8831,389.91 L1027.8811,389.91 Z M739.346096,631.711 L792.176096,944.63 L511.768096,796.298 L231.360096,944.63 L284.190096,631.711 L56.613096,410.229 L371.564096,365.526 L511.768096,79.022 L651.972096,365.526 L966.923096,410.229 L739.346096,631.711 Z"/></svg>